<svg width="212" height="58" viewBox="0 0 212 58" fill="none" xmlns="http://www.w3.org/2000/svg">
<path d="M4.5 29.5C4.5 26.8 4.88333 24.15 5.65 21.55C6.41667 18.9167 7.51667 16.4333 8.95 14.1C10.3833 11.7667 12.0833 9.7 14.05 7.9L14.75 8.45C13.35 10.2167 12.1333 12.25 11.1 14.55C10.0667 16.8167 9.26667 19.2333 8.7 21.8C8.16667 24.3333 7.9 26.9 7.9 29.5C7.9 32.0667 8.16667 34.6333 8.7 37.2C9.26667 39.7667 10.0667 42.1833 11.1 44.45C12.1333 46.7167 13.35 48.75 14.75 50.55L14.05 51.1C12.0833 49.3 10.3833 47.2333 8.95 44.9C7.51667 42.5667 6.41667 40.0833 5.65 37.45C4.88333 34.8167 4.5 32.1667 4.5 29.5ZM19.541 23.6C19.541 23.1333 19.5077 22.65 19.441 22.15C19.4077 21.65 19.3077 20.9333 19.141 20C19.0077 19.1333 18.9077 18.4667 18.841 18C18.7743 17.5333 18.741 17.1167 18.741 16.75C18.741 15.3833 19.0743 14.1667 19.741 13.1C20.4077 12 21.2743 11.0333 22.341 10.2C23.4077 9.33333 24.5243 8.58333 25.691 7.95L26.241 8.65C24.9743 9.48333 23.9077 10.4 23.041 11.4C22.1743 12.4 21.741 13.7667 21.741 15.5C21.741 15.9333 21.7743 16.3833 21.841 16.85C21.9077 17.3167 22.0077 18 22.141 18.9C22.241 19.4333 22.3243 20.0167 22.391 20.65C22.491 21.25 22.541 21.8333 22.541 22.4C22.541 24.2333 22.141 25.6667 21.341 26.7C20.541 27.7333 19.6243 28.4667 18.591 28.9V29.2C19.6243 29.6333 20.541 30.4 21.341 31.5C22.141 32.6 22.541 34.1 22.541 36C22.541 36.4333 22.5077 36.9167 22.441 37.45C22.4077 37.9833 22.3077 38.7333 22.141 39.7C22.0077 40.6333 21.9077 41.35 21.841 41.85C21.7743 42.3167 21.741 42.7667 21.741 43.2C21.741 44.5 21.9243 45.5833 22.291 46.45C22.691 47.2833 23.2243 48 23.891 48.6C24.591 49.2333 25.3743 49.85 26.241 50.45L25.691 51.15C24.491 50.45 23.3577 49.6833 22.291 48.85C21.2577 48.0167 20.4077 47.05 19.741 45.95C19.0743 44.8167 18.741 43.4833 18.741 41.95C18.741 41.5167 18.7743 41.0667 18.841 40.6C18.9077 40.1 19.0077 39.3667 19.141 38.4C19.241 37.8333 19.3243 37.2333 19.391 36.6C19.491 35.9667 19.541 35.3333 19.541 34.7C19.541 32.6667 19.1577 31.3 18.391 30.6C17.6243 29.8667 16.7077 29.5 15.641 29.5H15.141V28.6H15.641C16.7077 28.6 17.6243 28.2667 18.391 27.6C19.1577 26.9 19.541 25.5667 19.541 23.6ZM34.1613 23.6C34.1613 25.5667 34.5447 26.9 35.3113 27.6C36.078 28.2667 36.9947 28.6 38.0613 28.6H38.5613V29.5H38.0613C36.9947 29.5 36.078 29.8667 35.3113 30.6C34.5447 31.3 34.1613 32.6667 34.1613 34.7C34.1613 35.3333 34.1947 35.9667 34.2613 36.6C34.3613 37.2333 34.4613 37.8333 34.5613 38.4C34.728 39.3667 34.828 40.1 34.8613 40.6C34.928 41.0667 34.9613 41.5167 34.9613 41.95C34.9613 43.4833 34.628 44.8167 33.9613 45.95C33.328 47.05 32.478 48.0167 31.4113 48.85C30.3447 49.6833 29.2113 50.45 28.0113 51.15L27.4613 50.45C28.328 49.85 29.0947 49.2333 29.7613 48.6C30.4613 48 30.9947 47.2833 31.3613 46.45C31.7613 45.5833 31.9613 44.5 31.9613 43.2C31.9613 42.7667 31.928 42.3167 31.8613 41.85C31.828 41.35 31.728 40.6333 31.5613 39.7C31.428 38.7333 31.328 37.9833 31.2613 37.45C31.1947 36.9167 31.1613 36.4333 31.1613 36C31.1613 34.1 31.5613 32.6 32.3613 31.5C33.1613 30.4 34.078 29.6333 35.1113 29.2V28.9C34.078 28.4667 33.1613 27.7333 32.3613 26.7C31.5613 25.6667 31.1613 24.2333 31.1613 22.4C31.1613 21.8333 31.1947 21.25 31.2613 20.65C31.3613 20.0167 31.4613 19.4333 31.5613 18.9C31.728 18 31.828 17.3167 31.8613 16.85C31.928 16.3833 31.9613 15.9333 31.9613 15.5C31.9613 13.7667 31.528 12.4 30.6613 11.4C29.7947 10.4 28.728 9.48333 27.4613 8.65L28.0113 7.95C29.2113 8.58333 30.328 9.33333 31.3613 10.2C32.428 11.0333 33.2947 12 33.9613 13.1C34.628 14.1667 34.9613 15.3833 34.9613 16.75C34.9613 17.1167 34.928 17.5333 34.8613 18C34.828 18.4667 34.728 19.1333 34.5613 20C34.428 20.9333 34.328 21.65 34.2613 22.15C34.1947 22.65 34.1613 23.1333 34.1613 23.6ZM49.2316 29.5C49.2316 32.1667 48.8483 34.8167 48.0816 37.45C47.315 40.0833 46.215 42.5667 44.7816 44.9C43.3816 47.2333 41.6816 49.3 39.6816 51.1L38.9816 50.55C40.415 48.75 41.6316 46.7167 42.6316 44.45C43.665 42.1833 44.4483 39.7667 44.9816 37.2C45.5483 34.6333 45.8316 32.0667 45.8316 29.5C45.8316 26.9 45.5483 24.3333 44.9816 21.8C44.4483 19.2333 43.665 16.8167 42.6316 14.55C41.6316 12.25 40.415 10.2167 38.9816 8.45L39.6816 7.9C41.6816 9.7 43.3816 11.7667 44.7816 14.1C46.215 16.4333 47.315 18.9167 48.0816 21.55C48.8483 24.15 49.2316 26.8 49.2316 29.5Z" fill="#B83309"/>
<path d="M57.12 48V31.2H62.4C64.256 31.2 65.872 31.552 67.248 32.256C68.624 32.96 69.696 33.944 70.464 35.208C71.232 36.456 71.616 37.92 71.616 39.6C71.616 41.28 71.232 42.752 70.464 44.016C69.696 45.264 68.624 46.24 67.248 46.944C65.872 47.648 64.256 48 62.4 48H57.12ZM62.4 31.776H58.752V47.424H62.4C64.72 47.424 66.528 46.736 67.824 45.36C69.136 43.984 69.792 42.064 69.792 39.6C69.792 37.136 69.136 35.216 67.824 33.84C66.528 32.464 64.72 31.776 62.4 31.776ZM73.5469 39.6C73.5469 38.368 73.7629 37.224 74.1949 36.168C74.6429 35.096 75.2589 34.168 76.0429 33.384C76.8429 32.584 77.7709 31.968 78.8269 31.536C79.8989 31.088 81.0509 30.864 82.2829 30.864C83.5149 30.864 84.6589 31.088 85.7149 31.536C86.7869 31.968 87.7149 32.584 88.4989 33.384C89.2989 34.168 89.9149 35.096 90.3469 36.168C90.7949 37.224 91.0189 38.368 91.0189 39.6C91.0189 40.832 90.7949 41.984 90.3469 43.056C89.9149 44.112 89.2989 45.04 88.4989 45.84C87.7149 46.624 86.7869 47.24 85.7149 47.688C84.6589 48.12 83.5149 48.336 82.2829 48.336C81.0509 48.336 79.8989 48.12 78.8269 47.688C77.7709 47.24 76.8429 46.624 76.0429 45.84C75.2589 45.04 74.6429 44.112 74.1949 43.056C73.7629 41.984 73.5469 40.832 73.5469 39.6ZM75.3709 39.6C75.3709 41.232 75.6589 42.664 76.2349 43.896C76.8109 45.112 77.6189 46.064 78.6589 46.752C79.6989 47.424 80.9069 47.76 82.2829 47.76C83.6589 47.76 84.8669 47.424 85.9069 46.752C86.9469 46.064 87.7549 45.104 88.3309 43.872C88.9069 42.64 89.1949 41.216 89.1949 39.6C89.1949 37.984 88.9069 36.568 88.3309 35.352C87.7549 34.12 86.9469 33.16 85.9069 32.472C84.8669 31.784 83.6589 31.44 82.2829 31.44C80.9069 31.44 79.6989 31.784 78.6589 32.472C77.6349 33.144 76.8269 34.096 76.2349 35.328C75.6589 36.544 75.3709 37.968 75.3709 39.6ZM93.7716 48L94.3716 30.864H94.6596L106.732 45.456H106.876L106.348 31.2H107.98L107.38 48.336H107.092L95.0196 33.744H94.8756L95.4036 48H93.7716ZM110.746 39.6C110.746 38.368 110.962 37.224 111.394 36.168C111.842 35.096 112.458 34.168 113.242 33.384C114.042 32.584 114.97 31.968 116.026 31.536C117.098 31.088 118.25 30.864 119.482 30.864C120.714 30.864 121.858 31.088 122.914 31.536C123.986 31.968 124.914 32.584 125.698 33.384C126.498 34.168 127.114 35.096 127.546 36.168C127.994 37.224 128.218 38.368 128.218 39.6C128.218 40.832 127.994 41.984 127.546 43.056C127.114 44.112 126.498 45.04 125.698 45.84C124.914 46.624 123.986 47.24 122.914 47.688C121.858 48.12 120.714 48.336 119.482 48.336C118.25 48.336 117.098 48.12 116.026 47.688C114.97 47.24 114.042 46.624 113.242 45.84C112.458 45.04 111.842 44.112 111.394 43.056C110.962 41.984 110.746 40.832 110.746 39.6ZM112.57 39.6C112.57 41.232 112.858 42.664 113.434 43.896C114.01 45.112 114.818 46.064 115.858 46.752C116.898 47.424 118.106 47.76 119.482 47.76C120.858 47.76 122.066 47.424 123.106 46.752C124.146 46.064 124.954 45.104 125.53 43.872C126.106 42.64 126.394 41.216 126.394 39.6C126.394 37.984 126.106 36.568 125.53 35.352C124.954 34.12 124.146 33.16 123.106 32.472C122.066 31.784 120.858 31.44 119.482 31.44C118.106 31.44 116.898 31.784 115.858 32.472C114.834 33.144 114.026 34.096 113.434 35.328C112.858 36.544 112.57 37.968 112.57 39.6ZM131.331 31.2H134.547C136.243 31.2 137.555 31.56 138.483 32.28C139.427 32.984 139.899 33.976 139.899 35.256C139.899 36.248 139.603 37.072 139.011 37.728C138.435 38.384 137.595 38.824 136.491 39.048V39.192C137.547 39.4 138.411 39.896 139.083 40.68C139.755 41.464 140.259 42.432 140.595 43.584C140.899 44.64 141.195 45.464 141.483 46.056C141.787 46.632 142.115 47.048 142.467 47.304C142.835 47.56 143.267 47.744 143.763 47.856V48H142.779C142.075 48 141.491 47.872 141.027 47.616C140.579 47.36 140.195 46.928 139.875 46.32C139.555 45.712 139.251 44.872 138.963 43.8C138.499 42.152 137.883 40.984 137.115 40.296C136.347 39.608 135.411 39.264 134.307 39.264H134.163V38.832H134.307C136.883 38.832 138.171 37.648 138.171 35.28C138.171 32.944 136.963 31.776 134.547 31.776H132.963V48H131.331V31.2ZM144.449 48L145.049 30.864H145.337L157.409 45.456H157.553L157.025 31.2H158.657L158.057 48.336H157.769L145.697 33.744H145.553L146.081 48H144.449ZM161.423 39.6C161.423 38.368 161.639 37.224 162.071 36.168C162.519 35.096 163.135 34.168 163.919 33.384C164.719 32.584 165.647 31.968 166.703 31.536C167.775 31.088 168.927 30.864 170.159 30.864C171.391 30.864 172.535 31.088 173.591 31.536C174.663 31.968 175.591 32.584 176.375 33.384C177.175 34.168 177.791 35.096 178.223 36.168C178.671 37.224 178.895 38.368 178.895 39.6C178.895 40.832 178.671 41.984 178.223 43.056C177.791 44.112 177.175 45.04 176.375 45.84C175.591 46.624 174.663 47.24 173.591 47.688C172.535 48.12 171.391 48.336 170.159 48.336C168.927 48.336 167.775 48.12 166.703 47.688C165.647 47.24 164.719 46.624 163.919 45.84C163.135 45.04 162.519 44.112 162.071 43.056C161.639 41.984 161.423 40.832 161.423 39.6ZM163.247 39.6C163.247 41.232 163.535 42.664 164.111 43.896C164.687 45.112 165.495 46.064 166.535 46.752C167.575 47.424 168.783 47.76 170.159 47.76C171.535 47.76 172.743 47.424 173.783 46.752C174.823 46.064 175.631 45.104 176.207 43.872C176.783 42.64 177.071 41.216 177.071 39.6C177.071 37.984 176.783 36.568 176.207 35.352C175.631 34.12 174.823 33.16 173.783 32.472C172.743 31.784 171.535 31.44 170.159 31.44C168.783 31.44 167.575 31.784 166.535 32.472C165.511 33.144 164.703 34.096 164.111 35.328C163.535 36.544 163.247 37.968 163.247 39.6ZM182.008 31.2H185.224C186.92 31.2 188.232 31.56 189.16 32.28C190.104 32.984 190.576 33.976 190.576 35.256C190.576 36.248 190.28 37.072 189.688 37.728C189.112 38.384 188.272 38.824 187.168 39.048V39.192C188.224 39.4 189.088 39.896 189.76 40.68C190.432 41.464 190.936 42.432 191.272 43.584C191.576 44.64 191.872 45.464 192.16 46.056C192.464 46.632 192.792 47.048 193.144 47.304C193.512 47.56 193.944 47.744 194.44 47.856V48H193.456C192.752 48 192.168 47.872 191.704 47.616C191.256 47.36 190.872 46.928 190.552 46.32C190.232 45.712 189.928 44.872 189.64 43.8C189.176 42.152 188.56 40.984 187.792 40.296C187.024 39.608 186.088 39.264 184.984 39.264H184.84V38.832H184.984C187.56 38.832 188.848 37.648 188.848 35.28C188.848 32.944 187.64 31.776 185.224 31.776H183.64V48H182.008V31.2ZM195.487 48V31.2H200.767C202.623 31.2 204.239 31.552 205.615 32.256C206.991 32.96 208.063 33.944 208.831 35.208C209.599 36.456 209.983 37.92 209.983 39.6C209.983 41.28 209.599 42.752 208.831 44.016C208.063 45.264 206.991 46.24 205.615 46.944C204.239 47.648 202.623 48 200.767 48H195.487ZM200.767 31.776H197.119V47.424H200.767C203.087 47.424 204.895 46.736 206.191 45.36C207.503 43.984 208.159 42.064 208.159 39.6C208.159 37.136 207.503 35.216 206.191 33.84C204.895 32.464 203.087 31.776 200.767 31.776Z" fill="#350908"/>
</svg>
