<svg width="195" height="160" viewBox="0 0 195 160" fill="none" xmlns="http://www.w3.org/2000/svg">
<g clip-path="url(#clip0_58_693)">
<path d="M91.9877 160C90.0142 158.405 90.7029 155.862 89.9564 154.227C89.6149 153.487 88.4633 153.157 88.0755 152.059C87.5836 150.666 87.1033 140.142 87.4679 138.946C87.7514 138.016 89.1288 138.27 89.1114 137.732C89.0825 136.808 87.7514 136.184 87.9077 134.86C87.9424 134.594 89.0941 134.536 89.123 134.265C89.3603 132.213 86.6692 132.508 89.4471 128.272C90.2862 126.994 93.4171 122.828 94.6324 121.891C95.6336 121.117 101.768 118.077 101.814 116.938C101.826 116.673 99.8004 115.297 100.09 114.921C103.255 113.615 107.683 114.257 107.034 109.709L110.501 110.864L109.922 109.142C111.936 109.709 112.978 108.616 114.436 108.137C116.005 107.622 117.654 108.761 116.861 106.039C116.699 105.478 115.31 106.056 115.819 104.357C116.537 101.964 118.273 102.172 119.008 101.45C119.471 100.993 120.629 97.913 121.67 97.179C124.095 95.4568 127.388 97.6472 130.206 96.7398C131.682 96.2659 132.759 94.4974 133.933 93.5323C134.888 92.7521 137.174 92.6365 137.128 90.9432C137.087 89.6255 134.367 88.2847 137.151 86.3486C138.962 85.0887 141.468 85.6435 143.32 86.4815C144.507 87.0132 144.981 88.4407 146.37 88.3425C146.37 87.4987 146.393 86.4122 147.313 86.0943C147.58 86.0019 152.655 85.4008 152.939 85.4297C153.268 85.4586 155.977 89.7584 158.234 88.9262L156.793 86.6145C158.477 86.7127 159.993 87.4178 161.747 87.2444C162.927 87.1288 162.389 85.5511 163.442 86.0308C163.992 86.2793 164.472 87.4872 165.294 87.6779C166.62 87.9842 169.814 85.7938 168.361 89.4926C170.948 90.5791 171.95 88.3425 172.169 88.3309C174.12 88.2269 179.027 90.9547 179.357 90.6484C179.537 90.4866 178.842 86.4584 182.28 90.9316C182.847 91.6656 182.766 92.885 182.841 92.9601C183.975 94.1045 183.958 91.9199 184.033 91.8679C185.15 91.0645 185.289 92.8157 185.984 93.5496C187.673 95.3297 189.201 95.6475 190.683 96.971C192.28 98.4042 192.957 100.878 194.988 102.207V150.175C191.151 149.262 193.281 152.441 192.674 153.071C192.523 153.227 189.311 152.932 188.368 153.105C187.066 153.342 184.571 154.932 183.75 154.839C183.223 154.781 183.339 153.452 182.5 153.186C182.32 153.128 178.958 153.238 178.796 153.319C178.211 153.614 173.952 158.688 174.733 160H91.9761H91.9877ZM190.943 101.629L187.488 106.085V109.72C190.191 106.518 192.743 106.357 190.943 101.629ZM191.528 116.077C191.655 115.921 190.613 113.465 192.112 112.338C191.099 110.807 190.04 111.801 188.634 112.043C189.346 112.327 190.451 117.372 191.528 116.077ZM159.507 123.099C157.979 123.492 157.325 126.052 158.842 126.474C161.185 127.133 162.609 122.296 159.507 123.099ZM121.96 132.392C121.479 132.109 118.655 131.78 119.193 133.121C119.685 134.34 121.855 135.548 123.239 135.149C123.54 134.883 122.139 132.496 121.96 132.392Z" fill="#AC2F1F"/>
<path d="M97.1962 37.4788C103.035 40.8539 106.959 43.1367 112.249 47.5868C113.366 48.523 116.062 51.8924 116.884 52.2334C117.926 52.661 119.726 51.5398 121.12 51.9039C121.751 52.0658 121.445 53.0425 121.497 53.0829C119.969 55.3311 122.967 57.8104 124.384 59.157C134.854 69.1089 155.369 72.224 169.189 75.1078C169.965 75.2697 171.342 76.1366 171.851 75.0443C174.45 75.8418 175.648 76.2521 178.217 77.356L182.042 80.7311C186.846 82.6556 190.561 86.3775 195 88.9146V102.207C192.969 100.878 192.292 98.3984 190.694 96.9709C189.213 95.6475 187.691 95.3296 185.995 93.5496C185.301 92.8156 185.162 91.0645 184.045 91.8678C183.97 91.9256 183.987 94.1044 182.853 92.9601C182.777 92.885 182.858 91.6655 182.291 90.9316C178.854 86.4584 179.548 90.4866 179.369 90.6484C179.039 90.9489 174.131 88.2269 172.181 88.3309C171.961 88.3424 170.954 90.5733 168.373 89.4925C169.826 85.7938 166.631 87.9841 165.306 87.6778C164.484 87.4871 164.004 86.285 163.454 86.0307C162.401 85.551 162.939 87.1288 161.758 87.2444C160.005 87.412 158.488 86.7069 156.804 86.6144L158.245 88.9262C155.988 89.7584 153.28 85.4644 152.95 85.4297C152.667 85.4008 147.591 86.0018 147.325 86.0943C146.405 86.4064 146.382 87.4929 146.382 88.3424C144.987 88.4407 144.518 87.019 143.332 86.4815C141.48 85.6493 138.98 85.0887 137.163 86.3486C134.379 88.2847 137.099 89.6255 137.139 90.9431C137.192 92.6365 134.9 92.7521 133.945 93.5323C132.77 94.4974 131.694 96.2659 130.218 96.7398C127.394 97.6471 124.101 95.4568 121.682 97.179C120.64 97.9187 119.483 100.999 119.02 101.45C118.285 102.172 116.549 101.964 115.831 104.357C115.322 106.05 116.711 105.472 116.873 106.039C117.666 108.755 116.01 107.622 114.448 108.137C112.989 108.616 111.948 109.709 109.934 109.142L110.513 110.864L107.046 109.709C107.694 114.257 103.267 113.61 100.101 114.921C99.812 115.297 101.838 116.673 101.826 116.938C101.774 118.077 95.6452 121.111 94.644 121.891C93.4345 122.828 90.2978 126.994 89.4587 128.272C86.6808 132.508 89.3719 132.213 89.1346 134.265C89.1056 134.536 87.954 134.594 87.9193 134.86C87.7572 136.184 89.0941 136.808 89.123 137.732C89.1404 138.27 87.7572 138.016 87.4794 138.946C87.1148 140.142 87.5952 150.666 88.0871 152.059C88.4748 153.152 89.6323 153.487 89.9679 154.226C90.7203 155.862 90.0316 158.405 91.9993 160H83.3184C83.7756 155.798 81.0036 151.198 80.4769 147.523C79.7593 142.512 77.8495 129.04 78.6887 124.746C78.706 124.66 79.3889 124.191 79.5568 123.614C84.7421 105.727 92.4507 96.9767 104.76 84.0311C106.085 82.6325 111.878 71.987 112.098 70.5769C112.642 67.0862 112.017 64.6993 111.103 61.434C110.842 60.5151 111.734 59.7233 109.945 60.0181C110.97 66.8145 110.599 71.7385 107.144 77.7374C102.914 85.0829 96.5422 89.5156 91.7446 95.8787C90.7955 97.1385 89.505 98.9532 88.6195 100.271C88.2144 100.866 85.1356 108.102 83.9029 106.825C84.0881 105.386 85.0314 103.86 85.7491 102.606C89.9853 95.1909 94.3257 90.9258 99.8236 84.8749C103.041 81.3322 107.712 74.8998 108.198 70.1203C108.707 65.1039 106.809 60.9312 108.51 55.9726C109.477 53.1638 110.356 52.9673 113.406 53.0771C114.361 52.2623 108.539 48.5115 107.804 47.9856C104.586 45.6854 97.5145 42.5993 95.4542 40.669C90.946 36.4328 99.2101 40.6112 99.5168 40.3627C101.033 39.1317 96.276 39.0334 97.2077 37.473L97.1962 37.4788ZM102.405 40.9522C101.774 40.3222 100.622 41.4723 101.253 42.1022C101.884 42.7322 103.035 41.5821 102.405 40.9522ZM128.262 63.6822C127.336 63.2256 124.552 62.7517 123.522 62.8499C122.295 62.9655 121.248 64.104 120.71 64.0174C119.407 63.8093 118.858 60.8041 118.042 60.3013C117.226 59.7985 114.836 59.7465 114.222 60.5787C113.805 61.1508 115.142 67.641 115.16 69.0049C115.171 69.8834 114.593 76.5989 114.465 76.9803C114.083 78.142 112.399 78.1015 111.676 78.8182C111.033 79.4539 110.964 80.6386 110.241 81.4304C106.386 85.684 96.8605 94.3471 95.1706 99.3636C94.5283 101.271 95.8362 102.438 95.3616 104.103C94.8871 105.767 91.2527 107.53 90.564 108.599C90.3557 108.923 88.0871 115.546 88.0292 115.933C87.792 117.528 89.3661 120.793 91.3974 119.851C93.4287 118.909 97.4682 112.835 99.7715 111.442C102.59 109.737 106.809 107.975 109.737 106.368C111.757 105.264 116.126 100.924 118.047 99.0631C118.863 98.2713 121.323 94.4049 121.607 94.2431C122.816 93.5554 126.67 94.3125 129.882 91.81C132.701 89.6197 131.242 87.5449 132.029 86.1463C132.816 84.7477 138.413 82.4418 140.288 82.5169C142.446 82.6036 143.419 84.6206 145.473 84.32C146.659 84.1409 147.036 82.9735 147.938 82.6845C151.752 81.4535 157.777 83.0717 161.712 83.1873C164.177 83.2567 167.893 82.4649 170.422 82.6152C171.122 82.6556 173.194 84.3894 174.143 83.118C175.694 81.0432 168.379 76.8243 166.319 76.7492C154.709 76.3099 142.435 71.2935 131.688 66.306C130.206 65.6182 128.748 63.9307 128.245 63.6822H128.262Z" fill="#350908"/>
<path d="M68.8389 0.491292C68.9083 0.491292 69.2266 -0.0693002 70.1063 0.00583076C70.4072 0.0347273 75.1411 1.50845 75.3842 1.64137C76.1307 2.06904 75.6562 2.56028 75.7835 2.80301C69.406 5.58286 62.5945 3.08042 63.0401 12.7954C63.6651 14.3732 68.0402 15.8816 68.2428 16.1243C69.6201 17.7598 66.8018 17.8928 66.5298 18.1008C65.5807 18.8232 66.0841 20.7304 65.6733 21.8921C64.6142 24.8857 62.4903 28.0123 61.7379 31.2487C61.2229 33.468 61.7379 36.375 60.6615 38.2764C59.3536 40.5881 57.1024 39.4611 56.7089 39.8252C56.5931 39.935 56.6221 41.8827 56.0375 42.9114C55.1637 44.4544 51.6219 46.7373 49.7295 46.1536C49.1103 48.2977 52.1948 46.876 52.6289 47.3094C53.0456 48.1185 51.9344 50.1008 52.0502 50.1933C52.1775 50.2915 55.0132 50.7943 55.21 50.7886C55.644 50.7886 56.4774 47.0725 56.7725 46.8297C58.7517 45.2058 59.8571 48.3381 59.0527 50.4938C58.1209 52.9847 51.8476 55.5045 59.5735 54.2446L57.8374 55.4004L59.0006 58.2843C54.1336 57.5619 57.9068 61.3647 57.7448 62.5148C57.5538 63.9018 55.3604 64.9132 55.0942 65.3813C53.5838 68.086 52.6115 68.8778 50.9795 71.3744C50.2851 72.4378 49.7469 74.3855 49.145 75.6222C48.6415 76.0152 46.6507 73.5764 44.8451 73.9347C43.2536 74.2583 44.631 76.125 44.5499 76.9919C44.521 77.2867 43.6587 77.2058 43.3057 78.194C43.0916 78.8008 42.5707 84.0773 42.7848 84.2912C42.9006 84.401 44.0522 84.2276 44.5152 84.2912L43.9481 81.4246L46.535 80.8178L46.2572 83.1353C46.969 83.407 48.9251 82.3031 49.145 82.5632C50.8117 84.5397 46.5176 84.3721 45.5453 84.8865C44.9898 85.1812 44.7699 86.025 44.168 86.5162C43.5661 87.0074 42.2466 87.1404 41.8705 87.753C41.3959 88.5274 43.1668 91.8216 40.4757 91.8158C40.2443 92.8619 41.4538 92.1799 41.6216 92.388C42.5649 93.5265 40.6146 93.4398 40.4757 93.9368C39.897 95.9943 41.2049 97.7396 37.5821 96.4335C37.2986 97.9708 38.7049 99.485 38.7396 100.832C38.7743 102.427 36.7893 103.496 38.1551 105.675H35.846C35.5508 106.698 36.5925 106.934 36.8124 107.796C36.934 108.281 36.4536 108.911 36.7256 109.691C37.7558 112.616 40.2906 111.876 40.47 112.038C41.4306 112.91 39.7523 117.071 38.7338 118.1C40.8288 117.626 40.551 121.608 41.6621 119.799C42.4145 118.568 41.7258 116.476 44.5268 116.667C42.2756 121.163 45.8578 120.868 46.6854 122.585C47.0847 123.423 46.5928 124.631 47.0905 125.365C47.4204 125.856 50.2156 126.162 51.4309 127.387C52.571 128.532 52.5131 131.317 54.9669 129.682C56.0838 128.936 55.2794 125.96 57.2529 126.48C57.901 128.156 57.2644 138.021 57.8316 138.617C57.9589 138.75 60.9567 138.732 61.4891 138.605C62.1315 138.455 61.1129 137.16 64.319 137.611C69.0588 138.281 67.9997 141.628 71.7209 141.506C70.9801 145.309 66.2115 143.373 63.3352 143.824L57.2587 144.968L73.1966 147.309C73.9548 147.401 76.559 147.083 76.8483 146.627C77.566 145.482 75.7777 138.079 75.743 136.033C75.7025 133.571 76.0266 128.607 76.3333 126.174C76.7963 122.515 79.9213 118.273 79.823 114.338C81.235 114.124 81.1193 114.528 80.9399 115.742C80.5579 118.354 79.25 121.666 78.6597 124.746C76.75 134.779 78.6019 142.448 79.2385 152.487C76.5127 152.429 73.7001 152.152 71.0091 151.747C57.9357 149.782 40.5683 143.298 28.6756 137.386C11.7538 128.977 -0.445611 110.818 0.0115788 91.6078C0.179408 84.557 5.54994 69.5019 10.1103 64.0752C11.586 62.3183 15.2609 62.2258 17.0028 58.2439C19.4566 52.6495 18.8895 52.3894 24.3236 48.2168C34.6654 40.2876 54.6255 35.8722 59.8687 24.1864C60.1465 23.568 61.7669 18.8868 61.7842 18.5921C61.8363 17.8292 60.8409 17.2686 60.7831 16.4133C60.702 15.217 61.5643 13.7432 61.2808 11.7956C60.9567 9.58214 58.5897 7.14327 59.0874 4.38076C59.7066 0.918961 62.7912 0.728244 65.3607 0.491292C65.5749 1.32351 64.6373 2.95328 66.1883 2.77412C68.1849 2.54294 70.1294 1.83209 72.3054 2.2193L68.8389 0.491292ZM43.9539 60.6018C43.3867 59.9314 40.3947 62.8731 41.066 63.4857C42.8427 64.0347 45.1344 61.9946 43.9539 60.6018ZM42.2177 76.2059C41.5869 75.576 40.4352 76.7261 41.066 77.356C41.6968 77.986 42.8485 76.8359 42.2177 76.2059ZM41.3496 77.9339V78.5119C41.7258 78.3212 41.7258 78.1247 41.3496 77.9339ZM20.805 106.247H19.0746C18.9068 109.992 19.0746 113.806 20.4173 117.343C20.7356 118.181 21.2564 119.932 22.5412 119.539C22.9521 117.135 21.1696 114.216 20.886 112.338C20.7761 111.622 21.2738 106.721 20.805 106.241V106.247Z" fill="#350908"/>
<path d="M195 150.175V160H174.745C173.963 158.682 178.223 153.614 178.807 153.319C178.975 153.232 182.338 153.128 182.511 153.186C183.35 153.452 183.24 154.781 183.761 154.839C184.577 154.932 187.077 153.342 188.379 153.105C189.323 152.932 192.54 153.227 192.685 153.071C193.287 152.446 191.163 149.262 195 150.175Z" fill="#350908"/>
<path d="M75.7835 2.80298C77.074 5.27074 79.6204 10.6802 75.199 9.73814V12.0441L78.0926 12.333C77.5891 13.4542 75.3089 14.2807 74.8923 14.928C73.8969 16.4653 76.0323 17.5922 76.8426 18.7885C84.1229 29.6016 85.9285 30.9597 97.1962 37.473C96.2702 39.0276 101.027 39.1259 99.5053 40.3627C99.2043 40.6112 90.9344 36.4327 95.4426 40.669C97.5029 42.5993 104.575 45.6854 107.793 47.9856C108.528 48.5115 114.349 52.2622 113.395 53.0771C110.339 52.9731 109.459 53.1638 108.499 55.9726C106.797 60.9312 108.695 65.1039 108.186 70.1203C107.677 75.1367 103.03 81.3321 99.812 84.8749C94.3141 90.9258 89.9737 95.1909 85.7375 102.606C85.0199 103.86 84.0766 105.386 83.8914 106.825C85.1241 108.108 88.2086 100.872 88.6079 100.271C89.4992 98.959 90.7897 97.1385 91.733 95.8786C96.5306 89.5156 102.902 85.0771 107.133 77.7374C110.588 71.7385 110.952 66.8145 109.934 60.0181C111.722 59.7233 110.837 60.5151 111.091 61.434C112.006 64.6993 112.636 67.0862 112.087 70.5769C111.867 71.9812 106.074 82.6325 104.748 84.0311C92.4449 96.9767 84.7363 105.727 79.5452 123.614C79.3773 124.191 78.6945 124.66 78.6771 124.746C79.2616 121.666 80.5695 118.36 80.9573 115.742C81.1367 114.534 81.2524 114.13 79.8403 114.338C79.9387 118.273 76.8136 122.515 76.3506 126.174C76.0439 128.607 75.7141 133.571 75.7603 136.033C75.7951 138.079 77.5833 145.477 76.8657 146.627C76.5763 147.083 73.9721 147.401 73.214 147.309L57.276 144.968L63.3526 143.824C66.2288 143.373 70.9975 145.309 71.7382 141.506C68.0171 141.628 69.0761 138.281 64.3364 137.611C61.1303 137.16 62.1488 138.449 61.5065 138.605C60.974 138.732 57.9763 138.75 57.8489 138.617C57.2818 138.021 57.9126 128.156 57.2702 126.48C55.2968 125.96 56.0954 128.936 54.9843 129.682C52.5305 131.317 52.5884 128.532 51.4483 127.387C50.2272 126.162 47.4378 125.856 47.1079 125.365C46.6102 124.631 47.1079 123.417 46.7028 122.585C45.8752 120.863 42.2929 121.163 44.5441 116.667C41.7374 116.482 42.4318 118.574 41.6795 119.799C40.5683 121.608 40.8519 117.626 38.7511 118.1C39.7755 117.071 41.4538 112.91 40.4873 112.038C40.3079 111.876 37.7673 112.616 36.743 109.691C36.471 108.917 36.9513 108.281 36.8298 107.796C36.6157 106.94 35.5682 106.698 35.8633 105.68H38.1724C36.8009 103.49 38.7917 102.427 38.7569 100.832C38.728 99.4849 37.3159 97.9708 37.5995 96.4335C41.2223 97.7396 39.9144 95.9942 40.4931 93.9368C40.632 93.4398 42.5823 93.5265 41.639 92.3879C41.4653 92.1799 40.2558 92.8618 40.4931 91.8158C43.1899 91.8216 41.4133 88.5274 41.8878 87.7529C42.264 87.1403 43.5893 86.9959 44.1853 86.5162C44.7814 86.0365 45.0071 85.1812 45.5627 84.8864C46.5349 84.3721 50.8291 84.5396 49.1623 82.5631C48.9424 82.3031 46.9863 83.4069 46.2745 83.1353L46.5523 80.8178L43.9654 81.4246L44.5326 84.2911C44.0638 84.2334 42.9122 84.4067 42.8022 84.2911C42.5823 84.0773 43.1089 78.8008 43.323 78.194C43.6703 77.1999 44.5384 77.2866 44.5673 76.9919C44.6425 76.125 43.271 74.2583 44.8624 73.9346C46.668 73.5705 48.6588 76.0152 49.1623 75.6222C49.7642 74.3912 50.2966 72.4378 50.9969 71.3744C52.6289 68.8777 53.6011 68.086 55.1116 65.3813C55.372 64.9131 57.5711 63.896 57.7621 62.5147C57.9184 61.3647 54.1509 57.5619 59.018 58.2843L57.8547 55.4004L59.5909 54.2446C51.865 55.5044 58.1441 52.9904 59.07 50.4938C59.8745 48.3381 58.7691 45.2057 56.7899 46.8297C56.4947 47.0724 55.6614 50.7885 55.2273 50.7885C55.0364 50.7885 52.1948 50.2915 52.0675 50.1933C51.9518 50.1008 53.0629 48.1185 52.6462 47.3094C52.2122 46.8759 49.1334 48.2976 49.7468 46.1535C51.6393 46.743 55.181 44.4544 56.0549 42.9113C56.6394 41.8826 56.6105 39.935 56.7262 39.8252C57.114 39.4669 59.371 40.5938 60.6789 38.2763C61.7495 36.375 61.2402 33.468 61.7553 31.2487C62.5019 28.0181 64.6315 24.8915 65.6906 21.892C66.1015 20.7246 65.598 18.8232 66.5471 18.1008C66.8191 17.8927 69.6375 17.7598 68.2601 16.1243C68.0576 15.8815 63.6824 14.3789 63.0574 12.7954C62.6118 3.08038 69.4176 5.58282 75.8009 2.80298H75.7835ZM68.2601 36.3229V22.7416C68.2601 21.8862 66.524 21.8862 66.524 22.7416V33.7222C66.524 34.1615 67.4846 35.4214 67.1085 36.3287H68.2601V36.3229Z" fill="#663734"/>
<path d="M83.3069 160H80.992C81.0325 159.341 80.7026 156.746 80.4133 156.532C80.4538 155.18 80.7894 154.521 79.2558 154.799C79.198 154.036 79.3021 153.25 79.2558 152.487C78.6192 142.448 76.7673 134.779 78.6771 124.746C77.838 129.04 79.742 142.518 80.4654 147.522C80.992 151.198 83.7641 155.793 83.3069 160Z" fill="#663734"/>
<path d="M178.217 77.356C179.814 78.0437 182.204 79.0088 183.611 79.7717C187.604 81.9563 191.14 84.8113 195 87.1808V88.9146C190.561 86.3774 186.846 82.6556 182.042 80.7311L178.217 77.356Z" fill="#663734"/>
<path d="M123.817 54.2387C123.678 55.4697 123.742 55.5333 124.975 55.3946C125.16 55.776 125.339 56.1806 125.553 56.5505C127.22 59.4343 127.839 60.0758 130.762 61.7518C141.983 68.1842 159.229 71.1721 171.851 75.0442C171.342 76.1307 169.97 75.2696 169.189 75.1078C155.369 72.2239 134.854 69.1147 124.384 59.1569C122.967 57.8104 119.969 55.331 121.497 53.0829C121.798 53.2909 122.978 53.7186 123.812 54.2387H123.817Z" fill="#663734"/>
<path d="M68.8389 0.491277L72.3054 2.21929C70.1352 1.83207 68.1849 2.53715 66.1883 2.7741C64.6373 2.95326 65.5749 1.3235 65.3607 0.491277C66.4256 0.393029 67.7335 0.456601 68.8331 0.491277H68.8389Z" fill="#663734"/>
<path d="M130.762 61.7519C127.839 60.0759 127.22 59.4344 125.553 56.5505C127.614 57.2036 130.125 59.7234 130.762 61.7519Z" fill="#350908"/>
<path d="M79.2558 154.799C80.7894 154.521 80.4538 155.18 80.4133 156.532C79.6378 155.955 79.47 157.683 79.2558 154.799Z" fill="#350908"/>
<path d="M123.817 54.2388C123.956 54.3255 124.581 54.0654 124.865 54.3486C125.148 54.6318 124.888 55.2155 124.975 55.3947C123.742 55.5334 123.678 55.4698 123.817 54.2388Z" fill="#350908"/>
<path d="M190.943 101.629C192.743 106.356 190.191 106.518 187.482 109.72V106.085L190.943 101.629Z" fill="#350908"/>
<path d="M159.507 123.099C162.609 122.302 161.185 127.133 158.841 126.474C157.325 126.052 157.979 123.492 159.507 123.099Z" fill="#350908"/>
<path d="M191.528 116.077C190.451 117.372 189.346 112.327 188.634 112.043C190.04 111.806 191.099 110.812 192.112 112.338C190.613 113.465 191.655 115.921 191.528 116.077Z" fill="#350908"/>
<path d="M121.96 132.392C122.139 132.496 123.534 134.883 123.239 135.149C121.861 135.548 119.685 134.34 119.193 133.12C118.649 131.78 121.479 132.109 121.96 132.392Z" fill="#350908"/>
<path d="M128.262 63.6822C128.765 63.9307 130.224 65.6182 131.705 66.306C142.452 71.2935 154.727 76.3099 166.336 76.7492C168.396 76.8301 175.711 81.049 174.16 83.118C173.211 84.3894 171.139 82.6556 170.439 82.6151C167.91 82.4649 164.195 83.2567 161.729 83.1873C157.8 83.0717 151.775 81.4535 147.956 82.6845C147.053 82.9735 146.677 84.1467 145.49 84.32C143.436 84.6263 142.458 82.6094 140.305 82.5169C138.43 82.4418 132.863 84.6957 132.047 86.1463C131.231 87.5969 132.718 89.6197 129.9 91.81C126.682 94.3125 122.834 93.5496 121.624 94.2431C121.34 94.4049 118.881 98.2713 118.065 99.063C116.138 100.924 111.774 105.258 109.754 106.368C106.826 107.969 102.607 109.732 99.7888 111.442C97.4855 112.841 93.4576 118.898 91.4147 119.851C89.3719 120.805 87.8093 117.528 88.0466 115.933C88.1045 115.551 90.373 108.928 90.5814 108.599C91.2701 107.53 94.8929 105.802 95.379 104.103C95.8651 102.403 94.5456 101.277 95.188 99.3636C96.8779 94.3471 106.398 85.684 110.258 81.4304C110.981 80.6328 111.051 79.4539 111.693 78.8182C112.417 78.1015 114.101 78.1362 114.483 76.9803C114.61 76.5989 115.183 69.8891 115.177 69.0049C115.165 67.641 113.823 61.1508 114.239 60.5787C114.847 59.7464 117.208 59.7811 118.059 60.3013C118.91 60.8214 119.419 63.8093 120.727 64.0174C121.265 64.104 122.313 62.9655 123.54 62.8499C124.57 62.7575 127.353 63.2256 128.279 63.6822H128.262Z" fill="#F6EFDC"/>
<path d="M102.405 40.9521C103.035 41.5821 101.884 42.7321 101.253 42.1022C100.622 41.4722 101.774 40.3222 102.405 40.9521Z" fill="#663734"/>
<path d="M68.2601 36.323H67.1085C67.4846 35.4214 66.524 34.1615 66.524 33.7223V22.7416C66.524 21.8863 68.2601 21.8863 68.2601 22.7416V36.323Z" fill="#350908"/>
<path d="M20.805 106.247C21.2738 106.721 20.7761 111.627 20.886 112.344C21.1696 114.222 22.9521 117.141 22.5412 119.545C21.2622 119.932 20.7356 118.187 20.4173 117.349C19.0746 113.812 18.901 109.997 19.0746 106.252H20.805V106.247Z" fill="#663734"/>
<path d="M43.9538 60.6018C45.1344 61.9946 42.8427 64.0347 41.066 63.4856C40.3947 62.873 43.3867 59.9314 43.9538 60.6018Z" fill="#663734"/>
<path d="M42.2177 76.2059C42.8485 76.8358 41.6968 77.9859 41.066 77.356C40.4352 76.726 41.5869 75.5759 42.2177 76.2059Z" fill="#663734"/>
<path d="M41.3496 77.9338C41.7258 78.1246 41.7258 78.3211 41.3496 78.5118V77.9338Z" fill="#663734"/>
</g>
<defs>
<clipPath id="clip0_58_693">
<rect width="195" height="160" fill="white"/>
</clipPath>
</defs>
</svg>
