<?xml version="1.0" encoding="UTF-8"?>
<svg id="Layer_1" data-name="Layer 1" xmlns="http://www.w3.org/2000/svg" xmlns:xlink="http://www.w3.org/1999/xlink" viewBox="0 0 136 220">
  <defs>
    <style>
      .cls-1 {
        fill: none;
      }

      .cls-2 {
        fill: #4b3d23;
      }

      .cls-3 {
        fill: #f6efdc;
      }

      .cls-4 {
        clip-path: url(#clippath);
      }
    </style>
    <clipPath id="clippath">
      <rect class="cls-1" width="136" height="220"/>
    </clipPath>
  </defs>
  <g class="cls-4">
    <g>
      <path class="cls-3" d="M136,0H0v220h136V0Z"/>
      <path class="cls-2" d="M0,220c.82-4.29,1.88-9.07,3.61-13.08,6.47-15.01,25.84-17.67,39.36-23.44,1.01-.55,1.87-1.29,2.61-2.17,1.75-2.09,5.51-10.26,5.14-12.8-2.98-5.6-6.88-10.63-5.93-17.39-1.66-.62-3.72-2.1-4.66-3.6-1.37-2.22-2.54-11.16-2.22-13.83.33-2.83,1.49-4.29,1.03-7.71-.3-2.21-2.72-6.28-2.54-8.07.1-.95,3.26-8.09,3.94-9.28,2.84-5.01,6.27-6.67,10.4-10.18,1.38-1.18,2.32-2.94,3.91-3.79,1.45-.77,3.64-1.36,5.27-1.53-.68-.84-.91-1.58-.75-2.68,2.32-2.23,6.09,2.21,7.58,2.34.74.06,1.99-.98,3.28-1.11,3.05-.3,6.99,1.01,9.63,2.5.84.47,2.32,2.01,2.95,2.19,1.82.52,2.82-.72,4.51,1,2.88,2.92,4.39,8.9,9.92,8.25-.23,3.44-.61,6.82.03,10.24,5.49.17.83,3.02.75,6.04.27,1.1,2.8-.09,2.93,1.5.14,1.78-2.66,3.61-3.26,5.19,4.17,5.64,3.94,15.04-1.57,19.71-.65.55-4.32,2.69-4.4,3.04.03,2.52,1.64,4.6,1.04,7.18-.49,2.14-5.34,4.69-5.99,7.22-1.83,6.99,2.7,12.66,8.4,15.84,9.31,5.19,21.09,6.71,29.48,13.86,7.24,6.17,9.37,15.75,11.57,24.58H0Z"/>
    </g>
  </g>
</svg>